<svg xmlns="http://www.w3.org/2000/svg" width="108" height="108" viewBox="0 0 108 108">
  <path d="M26.698,25.661 H81.302 A2.074,2.074 0 0 1 83.376,27.734 V60.221 A2.074,2.074 0 0 1 81.302,62.294 H26.698 A2.074,2.074 0 0 1 24.624,60.221 V27.734 A2.074,2.074 0 0 1 26.698,25.661 Z" fill="none" stroke="#F0EEEE" stroke-width="1.382"/>
  <path d="M36.61734174990012 38.062496524170996Q36.61734174990012 39.52014702357172 35.53642700759089 40.291223012385146Q34.455512265281655 41.06229900119857 32.36410067918497 41.06229900119857Q30.4557756292449 41.06229900119857 29.37133999200958 40.38628717538954Q28.286904354774265 39.710275349580506 27.97706560127846 38.337126328405915L29.983975709149018 38.006162205353576Q30.188187614862162 38.79484266879744 30.779697962445063 39.1504530563324Q31.371208310027964 39.50606344386736 32.42043499800239 39.50606344386736Q34.596348062325205 39.50606344386736 34.596348062325205 38.18220695165802Q34.596348062325205 37.75969956052737 34.34636452257291 37.485069756292454Q34.09638098282061 37.210439952057534 33.642185537355175 37.02735341590092Q33.18799009188973 36.84426687974431 31.899342548941267 36.583720655213746Q30.78673975229724 36.32317443068318 30.35014878146224 36.16473415900919Q29.913557810627243 36.006293887335204 29.561468318018374 35.79151929684379Q29.209378825409505 35.57674470635238 28.962916180583296 35.273947742708756Q28.716453535757086 34.97115077906513 28.57913863363963 34.56272696763884Q28.44182373152217 34.15430315621255 28.44182373152217 33.626168917299246Q28.44182373152217 32.281187055533366 29.452320575309624 31.56644538553736Q30.462817419097078 30.851703715541355 32.39226783859368 30.851703715541355Q34.237216779864156 30.851703715541355 35.16321214542548 31.4291304834199Q36.08920751098681 32.006557251298446 36.35679552536955 33.33745553335997L34.34284362764682 33.61208533759489Q34.18792425089892 32.97128246104675 33.71260343587694 32.64736012784658Q33.23728262085497 32.32343779464642 32.35001709948062 32.32343779464642Q30.462817419097078 32.32343779464642 30.462817419097078 33.506458489812225Q30.462817419097078 33.893756931681985 30.663508429884132 34.140219576508194Q30.86419944067119 34.386682221334404 31.258539672393123 34.55920607271275Q31.652879904115057 34.73172992409109 32.85702596883739 34.992276148621656Q34.2865093088294 35.295073112265285 34.90266592089492 35.55209844186976Q35.51882253296044 35.80912377147423 35.87795381542149 36.15065057930484Q36.23708509788254 36.49217738713544 36.42721342389133 36.967498202157415Q36.61734174990012 37.44281901717939 36.61734174990012 38.062496524170996ZM40.053735197762684 33.30224658409908V37.57661302437076Q40.053735197762684 39.58352313224131 41.40575884938074 39.58352313224131Q42.12402141430283 39.58352313224131 42.56413328006392 38.96736652017579Q43.00424514582501 38.35120990811027 43.00424514582501 37.38648469836197V33.30224658409908H44.98298809428685V39.21735005992809Q44.98298809428685 40.18911705952857 45.03932241310427 40.92146320415502H43.152122732720734Q43.067621254494604 39.90744546544148 43.067621254494604 39.40747838593688H43.03241230523372Q42.638072073511786 40.2736185377547 42.028957251298436 40.667958769476634Q41.419842429085094 41.06229900119857 40.58186943667599 41.06229900119857Q39.370681582101476 41.06229900119857 38.72283691570115 40.319390171793856Q38.074992249300834 39.57648134238914 38.074992249300834 38.13995621254495V33.30224658409908ZM54.207732800639235 37.08368773471834Q54.207732800639235 38.97088741510188 53.45074039153016 40.016593208150226Q52.693747982421094 41.06229900119857 51.28539001198561 41.06229900119857Q50.475584178985216 41.06229900119857 49.88407383140232 40.7102095085897Q49.292563483819414 40.35812001598082 48.97568294047143 39.69619176987615H48.961599360767075Q48.961599360767075 39.94265441470236 48.929911306432274 40.37220359568518Q48.89822325209748 40.801752776668 48.863014302836596 40.92146320415502H46.94060567319217Q46.99693999200959 40.26657674790252 46.99693999200959 39.1821411106672V30.471447063523776H48.97568294047143V33.38674806232521L48.94751578106272 34.62610307630843H48.97568294047143Q49.64465297642828 33.16141078705554 51.41214222932481 33.16141078705554Q52.76416588094287 33.16141078705554 53.48594934079105 34.18599121054734Q54.207732800639235 35.210571634039155 54.207732800639235 37.08368773471834ZM52.144488373951255 37.08368773471834Q52.144488373951255 35.787998401917704 51.764231721933676 35.161279105073916Q51.3839750699161 34.53455980823013 50.588252816620056 34.53455980823013Q49.78548877347183 34.53455980823013 49.36650227726727 35.20705073911307Q48.94751578106272 35.87954166999601 48.94751578106272 37.14706384338794Q48.94751578106272 38.35825169796245 49.3594604874151 39.03426352377148Q49.77140519376748 39.710275349580506 50.5741692369157 39.710275349580506Q52.144488373951255 39.710275349580506 52.144488373951255 37.08368773471834ZM57.75679488613663 41.04821542149421Q56.88361294446664 41.04821542149421 56.41181302437076 40.57289460647224Q55.94001310427487 40.097573791450266 55.94001310427487 39.132848581701964V34.64018665601279H54.975287894526566V33.30224658409908H56.03859816220535L56.65827566919696 31.513631961646027H57.89763068318018V33.30224658409908H59.34119760287655V34.64018665601279H57.89763068318018V38.59767255293648Q57.89763068318018 39.15397395125849 58.1088843787455 39.41804107071515Q58.320138074310826 39.682108190171796 58.763770834998 39.682108190171796Q58.99614990011985 39.682108190171796 59.42569908110268 39.58352313224131V40.80879456652018Q58.69335293647623 41.04821542149421 57.75679488613663 41.04821542149421ZM60.60871977626847 31.929097562924493V30.471447063523776H62.587462724730315V31.929097562924493ZM60.60871977626847 40.92146320415502V33.30224658409908H62.587462724730315V40.92146320415502ZM66.56607399121054 41.04821542149421Q65.69289204954055 41.04821542149421 65.22109212944466 40.57289460647224Q64.74929220934878 40.097573791450266 64.74929220934878 39.132848581701964V34.64018665601279H63.78456699960048V33.30224658409908H64.84787726727926L65.46755477427088 31.513631961646027H66.7069097882541V33.30224658409908H68.15047670795046V34.64018665601279H66.7069097882541V38.59767255293648Q66.7069097882541 39.15397395125849 66.91816348381943 39.41804107071515Q67.12941717938475 39.682108190171796 67.57304994007191 39.682108190171796Q67.80542900519377 39.682108190171796 68.23497818617659 39.58352313224131V40.80879456652018Q67.50263204155014 41.04821542149421 66.56607399121054 41.04821542149421ZM69.41799888134238 40.92146320415502V30.471447063523776H71.39674182980423V40.92146320415502ZM76.5442902117459 41.06229900119857Q74.82609348781462 41.06229900119857 73.90361901717938 40.044760367558936Q72.98114454654414 39.0272217339193 72.98114454654414 37.076645944866165Q72.98114454654414 35.189446264482626 73.91770259688374 34.17542852576908Q74.85426064722333 33.16141078705554 76.57245737115461 33.16141078705554Q78.21319440671195 33.16141078705554 79.07933455852977 34.249367319216944Q79.94547471034758 35.33732385137835 79.94547471034758 37.43577722732721V37.49211154614463H75.05847255293648Q75.05847255293648 38.604714342788654 75.47041725928887 39.17157842588894Q75.88236196564124 39.738442508989216 76.6428752696764 39.738442508989216Q77.69210195765082 39.738442508989216 77.96673176188574 38.830051618058334L79.83280607271274 38.992012784658414Q79.02300023971235 41.06229900119857 76.5442902117459 41.06229900119857ZM76.5442902117459 34.40780759089093Q75.84715301638035 34.40780759089093 75.47041725928887 34.89369109069118Q75.09368150219737 35.379574590491416 75.07255613264083 36.252756532161406H78.03010787055534Q77.97377355173792 35.33028206152617 77.58647510986816 34.86904482620855Q77.1991766679984 34.40780759089093 76.5442902117459 34.40780759089093Z" fill="#F0EEEE"/>
  <path d="M41.47617674790252 50.25183475829006Q41.47617674790252 51.20951817818618 41.03958577706752 51.96298969236916Q40.60299480623252 52.71646120655214 39.789668078306036 53.12840591290452Q38.97634135037955 53.5403506192569 37.85669676388334 53.5403506192569H35.392070315621254V57.03307838593688H33.314742309228926V47.111196484218944H37.77219528565721Q39.55376811825809 47.111196484218944 40.5149724330803 47.93156500199761Q41.47617674790252 48.75193351977627 41.47617674790252 50.25183475829006ZM39.38476516180584 50.28704370755094Q39.38476516180584 48.72376636036756 37.53981622053536 48.72376636036756H35.392070315621254V51.941864322812634H37.59615053935278Q38.45524890131842 51.941864322812634 38.92000703156213 51.5158360367559Q39.38476516180584 51.089807750699165 39.38476516180584 50.28704370755094ZM42.9760779864163 57.03307838593688V46.58306224530564H44.95482093487814V57.03307838593688ZM48.74330387534958 57.17391418298043Q47.63774286855774 57.17391418298043 47.01806536156613 56.571841150619264Q46.398387854574516 55.969768118258095 46.398387854574516 54.878290691170605Q46.398387854574516 53.6952699960048 47.169463843387945 53.07559248901319Q47.94053983220137 52.45591498202158 49.40523212145426 52.44183140231723L51.04596915701159 52.41366424290852V52.02636580103876Q51.04596915701159 51.279936076707955 50.785422932481026 50.91728389932082Q50.52487670795046 50.55463172193369 49.933366360367565 50.55463172193369Q49.384106751897725 50.55463172193369 49.12708142229325 50.80461526168598Q48.87005609268878 51.05459880143828 48.80667998401918 51.63202556931682L46.74343555733121 51.533440511386345Q46.93356388334 50.42083771474231 47.76097419097084 49.84693184178985Q48.588384498601684 49.2730259688374 50.017867838593695 49.2730259688374Q51.46143475829005 49.2730259688374 52.24307343188175 49.98424674390732Q53.02471210547344 50.69546751897723 53.02471210547344 52.00524043148223V54.77970563324012Q53.02471210547344 55.42050850978826 53.169068797443074 55.66345025968838Q53.31342548941271 55.9063920095885 53.65143140231723 55.9063920095885Q53.8767686775869 55.9063920095885 54.08802237315222 55.864141270475436V56.9344933280064Q53.911977626847786 56.97674406711946 53.771141829804236 57.011953016380346Q53.63030603276069 57.04716196564124 53.48947023571715 57.068287335197766Q53.3486344386736 57.0894127047543 53.1901941669996 57.10349628445866Q53.031753895325615 57.11757986416301 52.82050019976029 57.11757986416301Q52.074070475429494 57.11757986416301 51.718460087894535 56.75140679184979Q51.362849700359575 56.385233719536565 51.2924318018378 55.67401294446665H51.250181062724735Q50.4192498601678 57.17391418298043 48.74330387534958 57.17391418298043ZM51.04596915701159 53.50514166999601 50.03195141829805 53.51922524970036Q49.34185601278466 53.54739240910907 49.05314262884539 53.67062373152218Q48.76442924490612 53.79385505393528 48.6130307630843 54.047359488613665Q48.46163228126249 54.300863923292056 48.46163228126249 54.7233713144227Q48.46163228126249 55.26558913304036 48.71161582101479 55.529656252497006Q48.96159936076708 55.79372337195366 49.37706496204555 55.79372337195366Q49.84182309228926 55.79372337195366 50.22560063923292 55.54021893727527Q50.60937818617659 55.28671450259689 50.82767367159409 54.83956084698362Q51.04596915701159 54.39240719137036 51.04596915701159 53.89244011186577ZM55.989305633240114 60.02583907311227Q55.2780848581702 60.02583907311227 54.74290882940472 59.93429580503397V58.52593783459849Q55.116123691570124 58.58227215341591 55.42596244506593 58.58227215341591Q55.84846983619657 58.58227215341591 56.126620535357574 58.44847814622454Q56.404771234518584 58.31468413903317 56.626587614862174 58.004845385537365Q56.84840399520576 57.695006632041554 57.12303379944068 56.95561869756293L54.10914774270876 49.413861765880945H56.20055932880544L57.397663603675596 52.984049220934885Q57.67933519776269 53.75160431482222 58.108884378745515 55.33600703156213L58.28492912504995 54.66703699560528L58.74264546544148 53.012216380343595L59.86933184178986 49.413861765880945H61.93961805833001L58.92573200159809 57.43446040751099Q58.32013807431083 58.89915269676389 57.668772512984425 59.46249588493808Q57.01740695165802 60.02583907311227 55.989305633240114 60.02583907311227ZM66.14356660007991 57.17391418298043Q64.42536987614862 57.17391418298043 63.502895405513385 56.156375549340794Q62.580420934878155 55.13883691570116 62.580420934878155 53.18826112664803Q62.580420934878155 51.30106144626449 63.51697898521775 50.28704370755095Q64.45353703555733 49.2730259688374 66.17173375948862 49.2730259688374Q67.81247079504595 49.2730259688374 68.67861094686377 50.36098250099881Q69.54475109868159 51.448939033160215 69.54475109868159 53.54739240910907V53.60372672792649H64.65774894127048Q64.65774894127048 54.71632952457052 65.06969364762287 55.283193607670796Q65.48163835397524 55.85005769077108 66.2421516580104 55.85005769077108Q67.29137834598482 55.85005769077108 67.56600815021974 54.9416667998402L69.43208246104675 55.10362796644028Q68.62227662804635 57.17391418298043 66.14356660007991 57.17391418298043ZM66.14356660007991 50.5194227726728Q65.44642940471435 50.5194227726728 65.06969364762287 51.005306272473035Q64.69295789053137 51.49118977227328 64.67183252097483 52.36437171394327H67.62938425888935Q67.57304994007193 51.441897243308034 67.18575149820217 50.980660007990416Q66.7984530563324 50.5194227726728 66.14356660007991 50.5194227726728ZM71.04465233719537 57.03307838593688V51.202476388334006Q71.04465233719537 50.57575709149022 71.02704786256493 50.156770595285664Q71.00944338793448 49.73778409908111 70.98831801837795 49.413861765880945H72.8755176987615Q72.89664306831803 49.54061398322014 72.9318520175789 50.184937754694374Q72.9670609668398 50.8292615261686 72.9670609668398 51.040515221733926H72.9952281262485Q73.28394151018779 50.237751178585704 73.50927878545747 49.910307950459455Q73.73461606072713 49.582864722333206 74.04445481422295 49.42442445065922Q74.35429356771874 49.26598417898522 74.81905169796245 49.26598417898522Q75.19930834998003 49.26598417898522 75.43168741510189 49.37161102676788V51.02643164202957Q74.95284570515382 50.92080479424691 74.5866726328406 50.92080479424691Q73.84728469836197 50.92080479424691 73.4353399920096 51.51935693168198Q73.02339528565722 52.11790906911706 73.02339528565722 53.29388797443069V57.03307838593688Z" fill="#F0EEEE"/>
  <path d="M43.286,67.133 H64.714 A2.419,2.419 0 0 1 67.133,69.552 V81.302 A2.419,2.419 0 0 1 64.714,83.722 H43.286 A2.419,2.419 0 0 1 40.867,81.302 V69.552 A2.419,2.419 0 0 1 43.286,67.133 Z" fill="#12100D" stroke="#F0EEEE" stroke-width="1.106"/>
  <path d="M45.070,71.778 L45.349,71.942 L45.628,72.099 L45.907,72.240 L46.186,72.358 L46.465,72.447 L46.744,72.504 L47.023,72.524 L47.302,72.508 L47.581,72.456 L47.860,72.370 L48.139,72.255 L48.419,72.117 L48.698,71.961 L48.977,71.797 L49.256,71.632 L49.535,71.474 L49.814,71.331 L50.093,71.210 L50.372,71.117 L50.651,71.057 L50.930,71.032 L51.209,71.044 L51.488,71.092 L51.767,71.174 L52.046,71.285 L52.326,71.421 L52.605,71.575 L52.884,71.739 L53.163,71.904 L53.442,72.063 L53.721,72.209 L54.000,72.332 L54.279,72.429 L54.558,72.493 L54.837,72.523 L55.116,72.515 L55.395,72.471 L55.674,72.393 L55.954,72.284 L56.233,72.151 L56.512,71.999 L56.791,71.836 L57.070,71.671 L57.349,71.510 L57.628,71.363 L57.907,71.236 L58.186,71.136 L58.465,71.068 L58.744,71.034 L59.023,71.038 L59.302,71.077 L59.581,71.152 L59.861,71.257 L60.140,71.388 L60.419,71.538 L60.698,71.700 L60.977,71.865 L61.256,72.027 L61.535,72.176 L61.814,72.306 L62.093,72.409 L62.372,72.481 L62.651,72.519 L62.930,72.520" fill="none" stroke="#F0CF94" stroke-width="0.968" stroke-linecap="round" stroke-linejoin="round"/>
  <path d="M45.070,75.427 L45.271,75.546 L45.472,75.662 L45.672,75.772 L45.873,75.874 L46.074,75.963 L46.275,76.039 L46.476,76.100 L46.677,76.143 L46.878,76.168 L47.079,76.173 L47.280,76.160 L47.481,76.128 L47.682,76.078 L47.883,76.011 L48.084,75.930 L48.285,75.835 L48.486,75.730 L48.686,75.617 L48.887,75.500 L49.088,75.380 L49.289,75.262 L49.490,75.148 L49.691,75.041 L49.892,74.944 L50.093,74.860 L50.294,74.789 L50.495,74.736 L50.696,74.700 L50.897,74.682 L51.098,74.684 L51.299,74.705 L51.500,74.744 L51.700,74.801 L51.901,74.873 L52.102,74.960 L52.303,75.059 L52.504,75.168 L52.705,75.283 L52.906,75.401 L53.107,75.521 L53.308,75.638 L53.509,75.749 L53.710,75.853 L53.911,75.945 L54.112,76.024 L54.313,76.088 L54.513,76.135 L54.714,76.164 L54.915,76.174 L55.116,76.165 L55.317,76.136 L55.518,76.090 L55.719,76.027 L55.920,75.948 L56.121,75.856 L56.322,75.754 L56.523,75.642 L56.724,75.525 L56.925,75.406 L57.126,75.287 L57.327,75.172 L57.527,75.063 L57.728,74.964 L57.929,74.877" fill="none" stroke="#F0CF94" stroke-width="0.968" stroke-linecap="round" stroke-linejoin="round"/>
  <path d="M45.070,79.077 L45.215,79.163 L45.360,79.248 L45.505,79.331 L45.650,79.410 L45.795,79.485 L45.940,79.554 L46.086,79.617 L46.231,79.673 L46.376,79.721 L46.521,79.760 L46.666,79.790 L46.811,79.811 L46.956,79.822 L47.101,79.822 L47.246,79.813 L47.392,79.794 L47.537,79.765 L47.682,79.727 L47.827,79.681 L47.972,79.626 L48.117,79.564 L48.262,79.496 L48.407,79.422 L48.553,79.343 L48.698,79.260 L48.843,79.176 L48.988,79.090 L49.133,79.003 L49.278,78.918 L49.423,78.835 L49.568,78.755 L49.713,78.679 L49.859,78.609 L50.004,78.545 L50.149,78.488 L50.294,78.439 L50.439,78.398 L50.584,78.367 L50.729,78.345 L50.874,78.333 L51.020,78.331 L51.165,78.338 L51.310,78.356 L51.455,78.383 L51.600,78.420 L51.745,78.465 L51.890,78.519 L52.035,78.580 L52.180,78.647 L52.326,78.721 L52.471,78.799 L52.616,78.881 L52.761,78.965 L52.906,79.051 L53.051,79.137 L53.196,79.223 L53.341,79.306 L53.487,79.387 L53.632,79.463 L53.777,79.534 L53.922,79.599 L54.067,79.657 L54.212,79.708 L54.357,79.749" fill="none" stroke="#F0CF94" stroke-width="0.968" stroke-linecap="round" stroke-linejoin="round"/>
</svg>
