<svg xmlns="http://www.w3.org/2000/svg" width="108" height="108" viewBox="0 0 108 108">
  <path d="M24.138,23.004 H83.862 A2.268,2.268 0 0 1 86.130,25.272 V60.804 A2.268,2.268 0 0 1 83.862,63.072 H24.138 A2.268,2.268 0 0 1 21.870,60.804 V25.272 A2.268,2.268 0 0 1 24.138,23.004 Z" fill="none" stroke="#F0EEEE" stroke-width="1.512"/>
  <path d="M34.987717538953255 36.56835557331202Q34.987717538953255 38.16266080703156 33.80546703955254 39.00602516979624Q32.623216540151816 39.84938953256092 30.335735117858572 39.84938953256092Q28.24850459448662 39.84938953256092 27.06240311626049 39.11000159808229Q25.87630163803436 38.37061366360367 25.537415501398325 36.868731921693964L27.732473431881743 36.50673991210547Q27.955830203755497 37.3693591689972 28.602794646424293 37.75830803036356Q29.24975908909309 38.14725689172992 30.39735077906512 38.14725689172992Q32.7772556931682 38.14725689172992 32.7772556931682 36.69928885337595Q32.7772556931682 36.23717139432681 32.50383619656412 35.93679504594486Q32.230416699960045 35.636418697562924 31.733640431482222 35.43616779864163Q31.236864163004398 35.23591689972033 29.827405912904517 34.95094446664003Q28.610496604075113 34.665972033559726 28.132975229724334 34.4926779864163Q27.655453855373555 34.31938393927287 27.270355972832604 34.08447423092289Q26.88525809029165 33.84956452257291 26.615689572512984 33.518380343587694Q26.346121054734322 33.187196164602476 26.195932880543353 32.740482620854976Q26.04574470635238 32.29376907710747 26.04574470635238 31.716122253296042Q26.04574470635238 30.24504834198961 27.150975629244908 29.46329964043148Q28.256206552137435 28.68155093887335 30.36654294846185 28.68155093887335Q32.38445585297643 28.68155093887335 33.39726328405913 29.31311146624051Q34.41007071514183 29.94467199360767 34.70274510587295 31.400341989612464L32.49998521773871 31.700718337994402Q32.330542149420694 30.999840191769874 31.81066000799041 30.645550139832196Q31.290777866560127 30.29126008789452 30.320331202556932 30.29126008789452Q28.256206552137435 30.29126008789452 28.256206552137435 31.585188973232118Q28.256206552137435 32.008796644027164 28.475712345185777 32.27836516180583Q28.69521813823412 32.547933679584496 29.126527766679985 32.736631642029565Q29.55783739512585 32.925329604474626 30.8748721534159 33.21030203755493Q32.438369556532166 33.54148621654015 33.11229085097883 33.822607670795044Q33.786212145425495 34.10372912504994 34.179011985617265 34.477274071114664Q34.57181182580903 34.85081901717938 34.77976468238114 35.37070115860966Q34.987717538953255 35.89058330003995 34.987717538953255 36.56835557331202ZM38.746272872552936 31.361832201358368V36.03692049540551Q38.746272872552936 38.23197842588893 40.225048741510186 38.23197842588893Q41.01064842189373 38.23197842588893 41.49202077506992 37.55805713144227Q41.97339312824611 36.884135836995604 41.97339312824611 35.8289676388334V31.361832201358368H44.13764322812625V37.83147662804634Q44.13764322812625 38.89434678385936 44.1992588893328 39.69535037954454H42.1351342389133Q42.04271074710348 38.58626847782661 42.04271074710348 38.03942948461845H42.00420095884938Q41.572891330403515 38.986770275669194 40.906671993607674 39.41807990411506Q40.240452656811826 39.84938953256092 39.323919696364364 39.84938953256092Q37.99918298042349 39.84938953256092 37.29060287654814 39.03683300039951Q36.582022772672794 38.22427646823811 36.582022772672794 36.653077107471034V31.361832201358368ZM54.227207750699165 35.49778345984818Q54.227207750699165 37.56190811026767 53.39924730323612 38.7056488214143Q52.571286855773074 39.84938953256092 51.03089532560927 39.84938953256092Q50.14517019576508 39.84938953256092 49.498205753096286 39.46429165001997Q48.85124131042749 39.07919376747902 48.50465321614063 38.35520974830203H48.48924930083899Q48.48924930083899 38.624778266080696 48.45459049141031 39.09459768278066Q48.41993168198162 39.56441709948062 48.38142189372753 39.69535037954454H46.27878745505394Q46.34040311626049 38.97906831801838 46.34040311626049 37.79296683979224V28.265645225729124H48.50465321614063V31.454255693168193L48.47384538553736 32.809800239712345H48.50465321614063Q49.23633919296844 31.207793048341987 51.16953056332402 31.207793048341987Q52.64830643228127 31.207793048341987 53.43775709149021 32.328427886536154Q54.227207750699165 33.44906272473032 54.227207750699165 35.49778345984818ZM51.97053415900919 35.49778345984818Q51.97053415900919 34.08062325209748 51.554628445864964 33.39514902117459Q51.13872273272074 32.7096747902517 50.26840151817819 32.7096747902517Q49.39037834598482 32.7096747902517 48.93211186576109 33.44521174590491Q48.47384538553736 34.18074870155813 48.47384538553736 35.56710107870555Q48.47384538553736 36.89183779464642 48.92440990811027 37.63122572912505Q49.37497443068318 38.37061366360367 50.25299760287655 38.37061366360367Q51.97053415900919 38.37061366360367 51.97053415900919 35.49778345984818ZM58.10899440671194 39.83398561725929Q57.153951658010385 39.83398561725929 56.63792049540551 39.314103475829Q56.121889332800635 38.79422133439872 56.121889332800635 37.739053136236514V32.82520415501398H55.06672113463843V31.361832201358368H56.2297167399121L56.907489013184176 29.40553495805034H58.26303355972832V31.361832201358368H59.84193487814622V32.82520415501398H58.26303355972832V37.15370435477427Q58.26303355972832 37.76215900918897 58.49409228925289 38.05098242109469Q58.72515101877746 38.3398058330004 59.21037435077906 38.3398058330004Q59.46453895325609 38.3398058330004 59.93435836995605 38.23197842588893V39.57211905713144Q59.13335477427087 39.83398561725929 58.10899440671194 39.83398561725929ZM61.22828725529365 29.859950459448658V28.265645225729124H63.39253735517379V29.859950459448658ZM61.22828725529365 39.69535037954454V31.361832201358368H63.39253735517379V39.69535037954454ZM67.74414342788654 39.83398561725929Q66.78910067918498 39.83398561725929 66.27306951658011 39.314103475829Q65.75703835397523 38.79422133439872 65.75703835397523 37.739053136236514V32.82520415501398H64.70187015581303V31.361832201358368H65.8648657610867L66.54263803435877 29.40553495805034H67.89818258090293V31.361832201358368H69.47708389932082V32.82520415501398H67.89818258090293V37.15370435477427Q67.89818258090293 37.76215900918897 68.12924131042749 38.05098242109469Q68.36030003995207 38.3398058330004 68.84552337195366 38.3398058330004Q69.09968797443068 38.3398058330004 69.56950739113064 38.23197842588893V39.57211905713144Q68.76850379544547 39.83398561725929 67.74414342788654 39.83398561725929ZM70.86343627646824 39.69535037954454V28.265645225729124H73.02768637634838V39.69535037954454ZM78.65781741909709 39.84938953256092Q76.77853975229723 39.84938953256092 75.76958330003995 38.73645665201757Q74.76062684778266 37.623523771474225 74.76062684778266 35.49008150219736Q74.76062684778266 33.42595685177786 75.78498721534159 32.316874950059926Q76.80934758290051 31.207793048341987 78.68862524970035 31.207793048341987Q80.48318138234119 31.207793048341987 81.43052217339192 32.39774550539352Q82.37786296444267 33.58769796244506 82.37786296444267 35.882881342389126V35.94449700359568H77.03270435477427Q77.03270435477427 37.161406312425086 77.48326887734717 37.78141390331602Q77.93383339992009 38.40142149420695 78.76564482620854 38.40142149420695Q79.91323651618058 38.40142149420695 80.21361286456252 37.407868957251296L82.25463164202957 37.58501398322013Q81.36890651218538 39.84938953256092 78.65781741909709 39.84938953256092ZM78.65781741909709 32.57103955253695Q77.895323611666 32.57103955253695 77.48326887734717 33.10247463044347Q77.07121414302836 33.633909708349975 77.0481082700759 34.58895245705153H80.28293048341989Q80.22131482221334 33.579996004794246 79.7977071514183 33.0755177786656Q79.37409948062324 32.57103955253695 78.65781741909709 32.57103955253695Z" fill="#F0EEEE"/>
  <path d="M40.30206831801838 49.90044426687974Q40.30206831801838 50.94791050739112 39.8245469436676 51.77201997602876Q39.34702556931682 52.596129444666396 38.457449460647226 53.04669396723931Q37.567873351977624 53.49725848981222 36.3432620854974 53.49725848981222H33.64757690771075V57.31742948461845H31.37549940071914V46.46537115461446H36.250838593687575Q38.19943387934479 46.46537115461446 39.25075109868158 47.36264922093487Q40.30206831801838 48.25992728725529 40.30206831801838 49.90044426687974ZM38.01458689572513 49.938954055133834Q38.01458689572513 48.229119456652015 35.99667399121055 48.229119456652015H33.64757690771075V51.7489141030763H36.0582896524171Q36.99792848581702 51.7489141030763 37.50625769077108 51.28294566520175Q38.01458689572513 50.8169772273272 38.01458689572513 49.938954055133834ZM41.94258529764283 57.31742948461845V45.88772433080303H44.10683539752297V57.31742948461845ZM48.250488613663606 57.47146863763483Q47.041281262485015 57.47146863763483 46.363508989212946 56.812951258489804Q45.68573671594087 56.15443387934478 45.68573671594087 54.960630443467835Q45.68573671594087 53.666701558130235 46.52910107870555 52.98892928485816Q47.37246544147023 52.31115701158609 48.974472632840595 52.29575309628445L50.76902876548142 52.26494526568118V51.84133759488613Q50.76902876548142 51.024930083899314 50.48405633240112 50.62827926488214Q50.19908389932081 50.231628445864956 49.552119456652015 50.231628445864956Q48.95136675988813 50.231628445864956 48.67024530563324 50.505047942469034Q48.38912385137834 50.778467439073104 48.319806232520975 51.41002796644027L46.063132640831 51.302200559328796Q46.271085497403114 50.085291250499395 47.176065521374355 49.45758170195764Q48.08104554534559 48.82987215341589 49.64454294846185 48.82987215341589Q51.223444266879746 48.82987215341589 52.078361566120655 49.60776987614861Q52.933278865361565 50.385667598881334 52.933278865361565 51.81823172193367V54.85280303635636Q52.933278865361565 55.553681182580895 53.091168997203354 55.81939872153416Q53.24905912904514 56.08511626048741 53.61875309628446 56.08511626048741Q53.86521574111067 56.08511626048741 54.09627447063524 56.03890451458249V57.209602077506986Q53.90372552936476 57.2558138234119 53.74968637634838 57.294323611665995Q53.595647223332 57.33283339992009 53.441608070315624 57.35593927287255Q53.28756891729924 57.379045145825 53.11427487015581 57.394449061126636Q52.94098082301238 57.409852976428276 52.70992209348781 57.409852976428276Q51.893514582501 57.409852976428276 51.50456572113464 57.00935117858569Q51.11561685976828 56.6088493807431 51.03859728326009 55.83095165801038H50.992385537355176Q50.08355453455853 57.47146863763483 48.250488613663606 57.47146863763483ZM50.76902876548142 53.45874870155812 49.65994686376348 53.47415261685976Q48.90515501398322 53.504960447463034 48.58937475029964 53.63974470635237Q48.27359448661606 53.7745289652417 48.10800239712346 54.05179944067119Q47.942410307630844 54.32906991610067 47.942410307630844 54.79118737514981Q47.942410307630844 55.38423811426288 48.215829804234914 55.673061526168595Q48.48924930083899 55.961884938074306 48.943664802237315 55.961884938074306Q49.451994007191374 55.961884938074306 49.87175069916101 55.68461446264482Q50.291507391130644 55.407343987215334 50.53026807830604 54.91826967638833Q50.76902876548142 54.42919536556132 50.76902876548142 53.88235637235317ZM56.17580303635637 60.590761486216536Q55.397905313623646 60.590761486216536 54.8125565321614 60.49063603675589V58.950244506592085Q55.22076028765481 59.01186016779864 55.55964642429085 59.01186016779864Q56.021763883339986 59.01186016779864 56.32599121054734 58.86552297243307Q56.63021853775469 58.71918577706751 56.87283020375549 58.380299640431474Q57.11544186975629 58.04141350379544 57.415818218138234 57.23270795045944L54.11938034358769 48.983911306432276H56.40686176588094L57.71619456652017 52.88880383539752Q58.024272872552935 53.72831721933679 58.49409228925289 55.46125769077107L58.68664123052337 54.72957171394326L59.187268477826606 52.91961166600079L60.41958170195765 48.983911306432276H62.68395725129844L59.3875193767479 57.756441070715134Q58.72515101877747 59.35844826208549 58.01271993607671 59.97460487415101Q57.300288853375946 60.590761486216536 56.17580303635637 60.590761486216536ZM67.2820259688374 57.47146863763483Q65.40274830203755 57.47146863763483 64.39379184978026 56.35853575709148Q63.38483539752298 55.24560287654813 63.38483539752298 53.11216060727127Q63.38483539752298 51.04803595685177 64.4091957650819 49.938954055133834Q65.43355613264083 48.82987215341589 67.31283379944067 48.82987215341589Q69.1073899320815 48.82987215341589 70.05473072313225 50.01982461046743Q71.00207151418299 51.20977706751897 71.00207151418299 53.504960447463034V53.56657610866959H65.65691290451458Q65.65691290451458 54.783485417498994 66.1074774270875 55.40349300838993Q66.5580419496604 56.02350059928086 67.38985337594886 56.02350059928086Q68.53744506592089 56.02350059928086 68.83782141430284 55.029948062325204L70.87884019176988 55.20709308829404Q69.99311506192569 57.47146863763483 67.2820259688374 57.47146863763483ZM67.2820259688374 50.19311865761086Q66.51953216140632 50.19311865761086 66.1074774270875 50.724553735517375Q65.69542269276867 51.25598881342388 65.67231681981622 52.21103156212544H68.9071390331602Q68.84552337195366 51.202075109868154 68.42191570115861 50.69759688373951Q67.99830803036356 50.19311865761086 67.2820259688374 50.19311865761086ZM72.64258849380742 57.31742948461845V50.940208549740305Q72.64258849380742 50.25473431881741 72.62333359968038 49.796467838593685Q72.60407870555333 49.33820135836995 72.58097283260088 48.983911306432276H74.64509748302036Q74.66820335597282 49.12254654414701 74.70671314422691 49.82727566919695Q74.74522293248101 50.532004794246895 74.74522293248101 50.763063523771464H74.7760307630843Q75.09181102676787 49.8850403515781 75.33827367159408 49.52689932081502Q75.58473631642029 49.16875829005193 75.92362245305632 48.995464242908504Q76.26250858969236 48.822170195765075 76.77083779464641 48.822170195765075Q77.18674350779064 48.822170195765075 77.44090811026767 48.93769956052736V50.74765960846983Q76.91717499001197 50.63213024370754 76.51667319216939 50.63213024370754Q75.7079676388334 50.63213024370754 75.25740311626049 51.28679664402716Q74.80683859368757 51.941463044346776 74.80683859368757 53.22768997203355V57.31742948461845Z" fill="#F0EEEE"/>
  <path d="M42.282,68.364 H65.718 A2.646,2.646 0 0 1 68.364,71.010 V83.862 A2.646,2.646 0 0 1 65.718,86.508 H42.282 A2.646,2.646 0 0 1 39.636,83.862 V71.010 A2.646,2.646 0 0 1 42.282,68.364 Z" fill="#12100D" stroke="#F0EEEE" stroke-width="1.210"/>
  <path d="M44.232,73.444 L44.538,73.625 L44.843,73.796 L45.148,73.950 L45.453,74.079 L45.759,74.177 L46.064,74.238 L46.369,74.261 L46.674,74.243 L46.980,74.186 L47.285,74.092 L47.590,73.966 L47.895,73.815 L48.201,73.645 L48.506,73.466 L48.811,73.285 L49.116,73.112 L49.421,72.956 L49.727,72.823 L50.032,72.722 L50.337,72.656 L50.642,72.628 L50.948,72.642 L51.253,72.694 L51.558,72.784 L51.863,72.906 L52.169,73.055 L52.474,73.223 L52.779,73.402 L53.084,73.583 L53.390,73.757 L53.695,73.916 L54.000,74.051 L54.305,74.157 L54.610,74.227 L54.916,74.259 L55.221,74.251 L55.526,74.203 L55.831,74.117 L56.137,73.999 L56.442,73.853 L56.747,73.686 L57.052,73.508 L57.358,73.327 L57.663,73.152 L57.968,72.991 L58.273,72.852 L58.579,72.743 L58.884,72.668 L59.189,72.631 L59.494,72.635 L59.799,72.678 L60.105,72.760 L60.410,72.875 L60.715,73.018 L61.020,73.182 L61.326,73.359 L61.631,73.540 L61.936,73.717 L62.241,73.880 L62.547,74.022 L62.852,74.135 L63.157,74.214 L63.462,74.255 L63.768,74.256" fill="none" stroke="#F0CF94" stroke-width="1.058" stroke-linecap="round" stroke-linejoin="round"/>
  <path d="M44.232,77.436 L44.452,77.566 L44.672,77.693 L44.892,77.814 L45.112,77.924 L45.331,78.022 L45.551,78.105 L45.771,78.171 L45.991,78.219 L46.210,78.246 L46.430,78.252 L46.650,78.238 L46.870,78.202 L47.089,78.148 L47.309,78.075 L47.529,77.986 L47.749,77.882 L47.969,77.767 L48.188,77.644 L48.408,77.515 L48.628,77.385 L48.848,77.255 L49.067,77.131 L49.287,77.014 L49.507,76.908 L49.727,76.815 L49.946,76.738 L50.166,76.680 L50.386,76.640 L50.606,76.621 L50.826,76.623 L51.045,76.646 L51.265,76.689 L51.485,76.751 L51.705,76.830 L51.924,76.926 L52.144,77.034 L52.364,77.152 L52.584,77.278 L52.803,77.408 L53.023,77.538 L53.243,77.666 L53.463,77.788 L53.683,77.901 L53.902,78.002 L54.122,78.089 L54.342,78.159 L54.562,78.210 L54.781,78.242 L55.001,78.252 L55.221,78.242 L55.441,78.212 L55.660,78.161 L55.880,78.092 L56.100,78.006 L56.320,77.905 L56.540,77.793 L56.759,77.671 L56.979,77.543 L57.199,77.413 L57.419,77.283 L57.638,77.157 L57.858,77.038 L58.078,76.930 L58.298,76.834" fill="none" stroke="#F0CF94" stroke-width="1.058" stroke-linecap="round" stroke-linejoin="round"/>
  <path d="M44.232,81.428 L44.391,81.522 L44.550,81.615 L44.709,81.705 L44.867,81.792 L45.026,81.874 L45.185,81.950 L45.344,82.019 L45.502,82.080 L45.661,82.132 L45.820,82.175 L45.978,82.208 L46.137,82.231 L46.296,82.242 L46.455,82.243 L46.613,82.233 L46.772,82.212 L46.931,82.181 L47.089,82.139 L47.248,82.088 L47.407,82.029 L47.566,81.961 L47.724,81.886 L47.883,81.805 L48.042,81.719 L48.201,81.629 L48.359,81.536 L48.518,81.442 L48.677,81.347 L48.835,81.254 L48.994,81.163 L49.153,81.076 L49.312,80.993 L49.470,80.916 L49.629,80.846 L49.788,80.784 L49.946,80.730 L50.105,80.686 L50.264,80.651 L50.423,80.627 L50.581,80.614 L50.740,80.612 L50.899,80.620 L51.058,80.639 L51.216,80.669 L51.375,80.709 L51.534,80.759 L51.692,80.817 L51.851,80.884 L52.010,80.958 L52.169,81.038 L52.327,81.124 L52.486,81.213 L52.645,81.305 L52.803,81.399 L52.962,81.494 L53.121,81.587 L53.280,81.679 L53.438,81.767 L53.597,81.850 L53.756,81.928 L53.915,81.999 L54.073,82.063 L54.232,82.118 L54.391,82.164" fill="none" stroke="#F0CF94" stroke-width="1.058" stroke-linecap="round" stroke-linejoin="round"/>
</svg>
