<svg xmlns="http://www.w3.org/2000/svg" width="108" height="108" viewBox="0 0 108 108">
  <path d="M26.698,28.901 H81.302 A2.074,2.074 0 0 1 83.376,30.974 V63.461 A2.074,2.074 0 0 1 81.302,65.534 H26.698 A2.074,2.074 0 0 1 24.624,63.461 V30.974 A2.074,2.074 0 0 1 26.698,28.901 Z" fill="none" stroke="#F0EEEE" stroke-width="1.382"/>
  <path d="M36.61734174990012 41.302496524171Q36.61734174990012 42.76014702357172 35.53642700759089 43.53122301238514Q34.455512265281655 44.30229900119857 32.36410067918497 44.30229900119857Q30.4557756292449 44.30229900119857 29.37133999200958 43.626287175389535Q28.286904354774265 42.95027534958051 27.97706560127846 41.57712632840592L29.983975709149018 41.24616220535358Q30.188187614862162 42.034842668797445 30.779697962445063 42.390453056332404Q31.371208310027964 42.746063443867364 32.42043499800239 42.746063443867364Q34.596348062325205 42.746063443867364 34.596348062325205 41.42220695165801Q34.596348062325205 40.999699560527375 34.34636452257291 40.725069756292456Q34.09638098282061 40.450439952057536 33.642185537355175 40.26735341590093Q33.18799009188973 40.08426687974431 31.899342548941267 39.82372065521375Q30.78673975229724 39.56317443068318 30.35014878146224 39.404734159009195Q29.913557810627243 39.2462938873352 29.561468318018374 39.03151929684379Q29.209378825409505 38.81674470635238 28.962916180583296 38.51394774270875Q28.716453535757086 38.21115077906513 28.57913863363963 37.80272696763884Q28.44182373152217 37.39430315621255 28.44182373152217 36.86616891729925Q28.44182373152217 35.52118705553336 29.452320575309624 34.80644538553736Q30.462817419097078 34.09170371554136 32.39226783859368 34.09170371554136Q34.237216779864156 34.09170371554136 35.16321214542548 34.669130483419906Q36.08920751098681 35.24655725129845 36.35679552536955 36.577455533359974L34.34284362764682 36.85208533759489Q34.18792425089892 36.21128246104675 33.71260343587694 35.88736012784659Q33.23728262085497 35.56343779464643 32.35001709948062 35.56343779464643Q30.462817419097078 35.56343779464643 30.462817419097078 36.74645848981223Q30.462817419097078 37.13375693168199 30.663508429884132 37.380219576508196Q30.86419944067119 37.626682221334406 31.258539672393123 37.79920607271275Q31.652879904115057 37.97172992409109 32.85702596883739 38.23227614862166Q34.2865093088294 38.53507311226529 34.90266592089492 38.79209844186976Q35.51882253296044 39.049123771474235 35.87795381542149 39.39065057930484Q36.23708509788254 39.732177387135444 36.42721342389133 40.20749820215742Q36.61734174990012 40.68281901717939 36.61734174990012 41.302496524171ZM40.053735197762684 36.54224658409908V40.81661302437076Q40.053735197762684 42.82352313224131 41.40575884938074 42.82352313224131Q42.12402141430283 42.82352313224131 42.56413328006392 42.207366520175796Q43.00424514582501 41.59120990811027 43.00424514582501 40.62648469836197V36.54224658409908H44.98298809428685V42.45735005992809Q44.98298809428685 43.42911705952857 45.03932241310427 44.16146320415502H43.152122732720734Q43.067621254494604 43.14744546544148 43.067621254494604 42.64747838593688H43.03241230523372Q42.638072073511786 43.5136185377547 42.028957251298436 43.907958769476636Q41.419842429085094 44.30229900119857 40.58186943667599 44.30229900119857Q39.370681582101476 44.30229900119857 38.72283691570115 43.55939017179385Q38.074992249300834 42.81648134238914 38.074992249300834 41.379956212544954V36.54224658409908ZM54.207732800639235 40.32368773471834Q54.207732800639235 42.21088741510188 53.45074039153016 43.25659320815022Q52.693747982421094 44.30229900119857 51.28539001198561 44.30229900119857Q50.475584178985216 44.30229900119857 49.88407383140232 43.950209508589694Q49.292563483819414 43.598120015980825 48.97568294047143 42.93619176987615H48.961599360767075Q48.961599360767075 43.18265441470236 48.929911306432274 43.61220359568519Q48.89822325209748 44.041752776668005 48.863014302836596 44.16146320415502H46.94060567319217Q46.99693999200959 43.50657674790252 46.99693999200959 42.422141110667205V33.71144706352378H48.97568294047143V36.62674806232521L48.94751578106272 37.866103076308434H48.97568294047143Q49.64465297642828 36.40141078705554 51.41214222932481 36.40141078705554Q52.76416588094287 36.40141078705554 53.48594934079105 37.42599121054735Q54.207732800639235 38.45057163403916 54.207732800639235 40.32368773471834ZM52.144488373951255 40.32368773471834Q52.144488373951255 39.027998401917706 51.764231721933676 38.40127910507392Q51.3839750699161 37.77455980823013 50.588252816620056 37.77455980823013Q49.78548877347183 37.77455980823013 49.36650227726727 38.44705073911307Q48.94751578106272 39.11954166999601 48.94751578106272 40.38706384338794Q48.94751578106272 41.59825169796245 49.3594604874151 42.27426352377148Q49.77140519376748 42.95027534958051 50.5741692369157 42.95027534958051Q52.144488373951255 42.95027534958051 52.144488373951255 40.32368773471834ZM57.75679488613663 44.288215421494215Q56.88361294446664 44.288215421494215 56.41181302437076 43.81289460647224Q55.94001310427487 43.33757379145027 55.94001310427487 42.372848581701966V37.88018665601279H54.975287894526566V36.54224658409908H56.03859816220535L56.65827566919696 34.75363196164603H57.89763068318018V36.54224658409908H59.34119760287655V37.88018665601279H57.89763068318018V41.83767255293648Q57.89763068318018 42.393973951258495 58.1088843787455 42.65804107071514Q58.320138074310826 42.9221081901718 58.763770834998 42.9221081901718Q58.99614990011985 42.9221081901718 59.42569908110268 42.82352313224131V44.04879456652018Q58.69335293647623 44.288215421494215 57.75679488613663 44.288215421494215ZM60.60871977626847 35.16909756292449V33.71144706352378H62.587462724730315V35.16909756292449ZM60.60871977626847 44.16146320415502V36.54224658409908H62.587462724730315V44.16146320415502ZM66.56607399121054 44.288215421494215Q65.69289204954055 44.288215421494215 65.22109212944466 43.81289460647224Q64.74929220934878 43.33757379145027 64.74929220934878 42.372848581701966V37.88018665601279H63.78456699960048V36.54224658409908H64.84787726727926L65.46755477427088 34.75363196164603H66.7069097882541V36.54224658409908H68.15047670795046V37.88018665601279H66.7069097882541V41.83767255293648Q66.7069097882541 42.393973951258495 66.91816348381943 42.65804107071514Q67.12941717938475 42.9221081901718 67.57304994007191 42.9221081901718Q67.80542900519377 42.9221081901718 68.23497818617659 42.82352313224131V44.04879456652018Q67.50263204155014 44.288215421494215 66.56607399121054 44.288215421494215ZM69.41799888134238 44.16146320415502V33.71144706352378H71.39674182980423V44.16146320415502ZM76.5442902117459 44.30229900119857Q74.82609348781462 44.30229900119857 73.90361901717938 43.28476036755893Q72.98114454654414 42.2672217339193 72.98114454654414 40.31664594486617Q72.98114454654414 38.42944626448263 73.91770259688374 37.41542852576909Q74.85426064722333 36.40141078705554 76.57245737115461 36.40141078705554Q78.21319440671195 36.40141078705554 79.07933455852977 37.489367319216946Q79.94547471034758 38.57732385137835 79.94547471034758 40.67577722732721V40.73211154614463H75.05847255293648Q75.05847255293648 41.844714342788656 75.47041725928887 42.41157842588893Q75.88236196564124 42.97844250898922 76.6428752696764 42.97844250898922Q77.69210195765082 42.97844250898922 77.96673176188574 42.070051618058336L79.83280607271274 42.232012784658416Q79.02300023971235 44.30229900119857 76.5442902117459 44.30229900119857ZM76.5442902117459 37.647807590890935Q75.84715301638035 37.647807590890935 75.47041725928887 38.13369109069117Q75.09368150219737 38.61957459049142 75.07255613264083 39.49275653216141H78.03010787055534Q77.97377355173792 38.57028206152617 77.58647510986816 38.10904482620855Q77.1991766679984 37.647807590890935 76.5442902117459 37.647807590890935Z" fill="#F0EEEE"/>
  <path d="M41.47617674790252 53.49183475829006Q41.47617674790252 54.44951817818618 41.03958577706752 55.202989692369165Q40.60299480623252 55.95646120655215 39.789668078306036 56.36840591290452Q38.97634135037955 56.7803506192569 37.85669676388334 56.7803506192569H35.392070315621254V60.273078385936884H33.314742309228926V50.351196484218946H37.77219528565721Q39.55376811825809 50.351196484218946 40.5149724330803 51.17156500199761Q41.47617674790252 51.991933519776275 41.47617674790252 53.49183475829006ZM39.38476516180584 53.527043707550945Q39.38476516180584 51.963766360367565 37.53981622053536 51.963766360367565H35.392070315621254V55.18186432281263H37.59615053935278Q38.45524890131842 55.18186432281263 38.92000703156213 54.755836036755895Q39.38476516180584 54.32980775069917 39.38476516180584 53.527043707550945ZM42.9760779864163 60.273078385936884V49.82306224530564H44.95482093487814V60.273078385936884ZM48.74330387534958 60.413914182980434Q47.63774286855774 60.413914182980434 47.01806536156613 59.811841150619266Q46.398387854574516 59.2097681182581 46.398387854574516 58.1182906911706Q46.398387854574516 56.935269996004806 47.169463843387945 56.3155924890132Q47.94053983220137 55.695914982021584 49.40523212145426 55.68183140231723L51.04596915701159 55.65366424290852V55.26636580103876Q51.04596915701159 54.51993607670796 50.785422932481026 54.15728389932082Q50.52487670795046 53.79463172193368 49.933366360367565 53.79463172193368Q49.384106751897725 53.79463172193368 49.12708142229325 54.04461526168598Q48.87005609268878 54.29459880143828 48.80667998401918 54.872025569316826L46.74343555733121 54.77344051138634Q46.93356388334 53.660837714742314 47.76097419097084 53.08693184178986Q48.588384498601684 52.513025968837404 50.017867838593695 52.513025968837404Q51.46143475829005 52.513025968837404 52.24307343188175 53.224246743907315Q53.02471210547344 53.935467518977234 53.02471210547344 55.24524043148223V58.01970563324012Q53.02471210547344 58.660508509788265 53.169068797443074 58.903450259688384Q53.31342548941271 59.1463920095885 53.65143140231723 59.1463920095885Q53.8767686775869 59.1463920095885 54.08802237315222 59.10414127047544V60.1744933280064Q53.911977626847786 60.216744067119464 53.771141829804236 60.251953016380355Q53.63030603276069 60.28716196564124 53.48947023571715 60.308287335197775Q53.3486344386736 60.329412704754304 53.1901941669996 60.34349628445866Q53.031753895325615 60.357579864163014 52.82050019976029 60.357579864163014Q52.074070475429494 60.357579864163014 51.718460087894535 59.99140679184979Q51.362849700359575 59.62523371953657 51.2924318018378 58.91401294446665H51.250181062724735Q50.4192498601678 60.413914182980434 48.74330387534958 60.413914182980434ZM51.04596915701159 56.745141669996016 50.03195141829805 56.759225249700364Q49.34185601278466 56.787392409109074 49.05314262884539 56.91062373152218Q48.76442924490612 57.033855053935284 48.6130307630843 57.287359488613674Q48.46163228126249 57.54086392329206 48.46163228126249 57.9633713144227Q48.46163228126249 58.50558913304036 48.71161582101479 58.769656252497015Q48.96159936076708 59.03372337195366 49.37706496204555 59.03372337195366Q49.84182309228926 59.03372337195366 50.22560063923292 58.78021893727528Q50.60937818617659 58.52671450259689 50.82767367159409 58.079560846983625Q51.04596915701159 57.63240719137036 51.04596915701159 57.13244011186577ZM55.989305633240114 63.265839073112275Q55.2780848581702 63.265839073112275 54.74290882940472 63.17429580503397V61.76593783459849Q55.116123691570124 61.82227215341591 55.42596244506593 61.82227215341591Q55.84846983619657 61.82227215341591 56.126620535357574 61.68847814622454Q56.404771234518584 61.55468413903317 56.626587614862174 61.24484538553736Q56.84840399520576 60.935006632041556 57.12303379944068 60.195618697562935L54.10914774270876 52.65386176588095H56.20055932880544L57.397663603675596 56.22404922093489Q57.67933519776269 56.99160431482222 58.108884378745515 58.576007031562135L58.28492912504995 57.90703699560528L58.74264546544148 56.2522163803436L59.86933184178986 52.65386176588095H61.93961805833001L58.92573200159809 60.67446040751099Q58.32013807431083 62.139152696763894 57.668772512984425 62.70249588493809Q57.01740695165802 63.265839073112275 55.989305633240114 63.265839073112275ZM66.14356660007991 60.413914182980434Q64.42536987614862 60.413914182980434 63.502895405513385 59.3963755493408Q62.580420934878155 58.378836915701164 62.580420934878155 56.42826112664803Q62.580420934878155 54.54106144626449 63.51697898521775 53.527043707550945Q64.45353703555733 52.513025968837404 66.17173375948862 52.513025968837404Q67.81247079504595 52.513025968837404 68.67861094686377 53.60098250099881Q69.54475109868159 54.68893903316022 69.54475109868159 56.787392409109074V56.843726727926494H64.65774894127048Q64.65774894127048 57.95632952457052 65.06969364762287 58.523193607670805Q65.48163835397524 59.09005769077108 66.2421516580104 59.09005769077108Q67.29137834598482 59.09005769077108 67.56600815021974 58.1816667998402L69.43208246104675 58.34362796644028Q68.62227662804635 60.413914182980434 66.14356660007991 60.413914182980434ZM66.14356660007991 53.7594227726728Q65.44642940471435 53.7594227726728 65.06969364762287 54.245306272473044Q64.69295789053137 54.73118977227328 64.67183252097483 55.60437171394327H67.62938425888935Q67.57304994007193 54.681897243308036 67.18575149820217 54.22066000799042Q66.7984530563324 53.7594227726728 66.14356660007991 53.7594227726728ZM71.04465233719537 60.273078385936884V54.44247638833401Q71.04465233719537 53.81575709149022 71.02704786256493 53.396770595285666Q71.00944338793448 52.97778409908111 70.98831801837795 52.65386176588095H72.8755176987615Q72.89664306831803 52.78061398322014 72.9318520175789 53.42493775469437Q72.9670609668398 54.0692615261686 72.9670609668398 54.28051522173393H72.9952281262485Q73.28394151018779 53.477751178585706 73.50927878545747 53.15030795045946Q73.73461606072713 52.82286472233321 74.04445481422295 52.66442445065921Q74.35429356771874 52.50598417898522 74.81905169796245 52.50598417898522Q75.19930834998003 52.50598417898522 75.43168741510189 52.61161102676789V54.26643164202957Q74.95284570515382 54.160804794246914 74.5866726328406 54.160804794246914Q73.84728469836197 54.160804794246914 73.4353399920096 54.75935693168199Q73.02339528565722 55.35790906911707 73.02339528565722 56.53388797443069V60.273078385936884Z" fill="#F0EEEE"/>
  <path d="M43.286,70.373 H64.714 A2.419,2.419 0 0 1 67.133,72.792 V84.542 A2.419,2.419 0 0 1 64.714,86.962 H43.286 A2.419,2.419 0 0 1 40.867,84.542 V72.792 A2.419,2.419 0 0 1 43.286,70.373 Z" fill="#12100D" stroke="#F0EEEE" stroke-width="1.106"/>
  <path d="M45.070,75.018 L45.349,75.182 L45.628,75.339 L45.907,75.480 L46.186,75.598 L46.465,75.687 L46.744,75.744 L47.023,75.764 L47.302,75.748 L47.581,75.696 L47.860,75.610 L48.139,75.495 L48.419,75.357 L48.698,75.201 L48.977,75.037 L49.256,74.872 L49.535,74.714 L49.814,74.571 L50.093,74.450 L50.372,74.357 L50.651,74.297 L50.930,74.272 L51.209,74.284 L51.488,74.332 L51.767,74.414 L52.046,74.525 L52.326,74.661 L52.605,74.815 L52.884,74.979 L53.163,75.144 L53.442,75.303 L53.721,75.449 L54.000,75.572 L54.279,75.669 L54.558,75.733 L54.837,75.763 L55.116,75.755 L55.395,75.711 L55.674,75.633 L55.954,75.524 L56.233,75.391 L56.512,75.239 L56.791,75.076 L57.070,74.911 L57.349,74.750 L57.628,74.603 L57.907,74.476 L58.186,74.376 L58.465,74.308 L58.744,74.274 L59.023,74.278 L59.302,74.317 L59.581,74.392 L59.861,74.497 L60.140,74.628 L60.419,74.778 L60.698,74.940 L60.977,75.105 L61.256,75.267 L61.535,75.416 L61.814,75.546 L62.093,75.649 L62.372,75.721 L62.651,75.759 L62.930,75.760" fill="none" stroke="#F0CF94" stroke-width="0.968" stroke-linecap="round" stroke-linejoin="round"/>
  <path d="M45.070,78.667 L45.271,78.786 L45.472,78.902 L45.672,79.012 L45.873,79.114 L46.074,79.203 L46.275,79.279 L46.476,79.340 L46.677,79.383 L46.878,79.408 L47.079,79.413 L47.280,79.400 L47.481,79.368 L47.682,79.318 L47.883,79.251 L48.084,79.170 L48.285,79.075 L48.486,78.970 L48.686,78.857 L48.887,78.740 L49.088,78.620 L49.289,78.502 L49.490,78.388 L49.691,78.281 L49.892,78.184 L50.093,78.100 L50.294,78.029 L50.495,77.976 L50.696,77.940 L50.897,77.922 L51.098,77.924 L51.299,77.945 L51.500,77.984 L51.700,78.041 L51.901,78.113 L52.102,78.200 L52.303,78.299 L52.504,78.408 L52.705,78.523 L52.906,78.641 L53.107,78.761 L53.308,78.878 L53.509,78.989 L53.710,79.093 L53.911,79.185 L54.112,79.264 L54.313,79.328 L54.513,79.375 L54.714,79.404 L54.915,79.414 L55.116,79.405 L55.317,79.376 L55.518,79.330 L55.719,79.267 L55.920,79.188 L56.121,79.096 L56.322,78.994 L56.523,78.882 L56.724,78.765 L56.925,78.646 L57.126,78.527 L57.327,78.412 L57.527,78.303 L57.728,78.204 L57.929,78.117" fill="none" stroke="#F0CF94" stroke-width="0.968" stroke-linecap="round" stroke-linejoin="round"/>
  <path d="M45.070,82.317 L45.215,82.403 L45.360,82.488 L45.505,82.571 L45.650,82.650 L45.795,82.725 L45.940,82.794 L46.086,82.857 L46.231,82.913 L46.376,82.961 L46.521,83.000 L46.666,83.030 L46.811,83.051 L46.956,83.062 L47.101,83.062 L47.246,83.053 L47.392,83.034 L47.537,83.005 L47.682,82.967 L47.827,82.921 L47.972,82.866 L48.117,82.804 L48.262,82.736 L48.407,82.662 L48.553,82.583 L48.698,82.500 L48.843,82.416 L48.988,82.330 L49.133,82.243 L49.278,82.158 L49.423,82.075 L49.568,81.995 L49.713,81.919 L49.859,81.849 L50.004,81.785 L50.149,81.728 L50.294,81.679 L50.439,81.638 L50.584,81.607 L50.729,81.585 L50.874,81.573 L51.020,81.571 L51.165,81.578 L51.310,81.596 L51.455,81.623 L51.600,81.660 L51.745,81.705 L51.890,81.759 L52.035,81.820 L52.180,81.887 L52.326,81.961 L52.471,82.039 L52.616,82.121 L52.761,82.205 L52.906,82.291 L53.051,82.377 L53.196,82.463 L53.341,82.546 L53.487,82.627 L53.632,82.703 L53.777,82.774 L53.922,82.839 L54.067,82.897 L54.212,82.948 L54.357,82.989" fill="none" stroke="#F0CF94" stroke-width="0.968" stroke-linecap="round" stroke-linejoin="round"/>
</svg>
