<svg xmlns="http://www.w3.org/2000/svg" width="108" height="108" viewBox="0 0 108 108">
  <path d="M25.844,24.775 H82.156 A2.138,2.138 0 0 1 84.294,26.914 V60.415 A2.138,2.138 0 0 1 82.156,62.554 H25.844 A2.138,2.138 0 0 1 23.706,60.415 V26.914 A2.138,2.138 0 0 1 25.844,24.775 Z" fill="none" stroke="#F0EEEE" stroke-width="1.426"/>
  <path d="M36.0741336795845 37.56444954055134Q36.0741336795845 39.06765161805833 34.95944035157811 39.86282373152217Q33.84474702357171 40.65799584498602 31.68797882540951 40.65799584498602Q29.720018617658813 40.65799584498602 28.60169436675989 39.960858649620455Q27.483370115860968 39.26372145425489 27.16384890131842 37.847661526168594L29.23347495005993 37.506354774270875Q29.44406847782661 38.31968150219736 30.054063523771475 38.686404714342785Q30.664058569716342 39.053127926488216 31.746073591689974 39.053127926488216Q33.989983939272875 39.053127926488216 33.989983939272875 37.68790091889732Q33.989983939272875 37.25219017179385 33.732188413903316 36.968978186176585Q33.47439288853376 36.68576620055933 33.00600383539752 36.496958210147824Q32.53761478226129 36.30815021973632 31.208697003595688 36.039461925689174Q30.061325369556535 35.77077363164203 29.611090930882945 35.60738210147822Q29.16085649220935 35.44399057131442 28.797764202956454 35.22250427487016Q28.434671913703557 35.00101797842589 28.180507311226528 34.6887586096684Q27.9263427087495 34.3764992409109 27.784736715940873 33.955312185377544Q27.643130723132245 33.534125129844185 27.643130723132245 32.98948669596484Q27.643130723132245 31.602474151018775 28.685205593288057 30.865396803835395Q29.72728046344387 30.128319456652015 31.71702620854974 30.128319456652015Q33.61962980423492 30.128319456652015 34.574562524970034 30.723790811026767Q35.52949524570516 31.31926216540152 35.805445385537354 32.69175101877747L33.72855749101079 32.97496300439472Q33.568796883739516 32.31413503795446 33.0786222932481 31.98009013184179Q32.588447702756696 31.646045225729125 31.673455133839393 31.646045225729125Q29.72728046344387 31.646045225729125 29.72728046344387 32.86603531761886Q29.72728046344387 33.26543683579705 29.93424306831802 33.51960143827407Q30.14120567319217 33.7737660407511 30.547869037155415 33.95168126248502Q30.95453240111866 34.129596484218936 32.19630803036357 34.39828477826608Q33.67046272473033 34.71054414702357 34.305874230922896 34.97560151817818Q34.941285737115464 35.2406588893328 35.31163987215342 35.59285840990811Q35.68199400719137 35.94505793048342 35.878063843387935 36.435232520974836Q36.0741336795845 36.92540711146624 36.0741336795845 37.56444954055134ZM39.61791442269276 32.655441789852176V37.06338218138234Q39.61791442269276 39.13300823012385 41.01218881342389 39.13300823012385Q41.752897083499796 39.13300823012385 42.20676244506592 38.49759672393128Q42.660627806632036 37.86218521773871 42.660627806632036 36.86731234518577V32.655441789852176H44.701206472233316V38.75539224930084Q44.701206472233316 39.75752696763883 44.75930123851378 40.51275892928486H42.81312656811826Q42.725984418697564 39.467053136236515 42.725984418697564 38.951462085497404H42.689675189772274Q42.28301182580903 39.844669117059524 41.65486216540151 40.25133248102277Q41.026712504994 40.65799584498602 40.16255285657211 40.65799584498602Q38.91351538154215 40.65799584498602 38.24542556931682 39.89187111466241Q37.57733575709149 39.12574638433879 37.57733575709149 37.64432984418698V32.655441789852176ZM54.2142244506592 36.555052976428286Q54.2142244506592 38.50122764682381 53.43357602876547 39.57961174590491Q52.65292760687175 40.65799584498602 51.20055844986016 40.65799584498602Q50.3654461845785 40.65799584498602 49.75545113863363 40.29490355573312Q49.14545609268877 39.931811266480224 48.81867303236116 39.24919776268478H48.80414934079104Q48.80414934079104 39.503362365161806 48.77147103475828 39.94633495805034Q48.73879272872552 40.389307550938874 48.70248349980023 40.51275892928486H46.71999960047942Q46.77809436675988 39.83740727127447 46.77809436675988 38.71908302037555V29.736179784258887H48.81867303236116V32.742583939272876L48.78962564922093 34.020668797443065H48.81867303236116Q49.508548381941665 32.510204874151015 51.3312716739912 32.510204874151015Q52.72554606472232 32.510204874151015 53.46988525769076 33.56680343587695Q54.2142244506592 34.623401997602876 54.2142244506592 36.555052976428286ZM52.08650363563723 36.555052976428286Q52.08650363563723 35.21887335197763 51.6943639632441 34.572569077107474Q51.30222429085097 33.92626480223731 50.481635717139426 33.92626480223731Q49.65378529764282 33.92626480223731 49.221705473431875 34.61977107471034Q48.78962564922093 35.31327734718338 48.78962564922093 36.62040958849381Q48.78962564922093 37.86944706352377 49.214443627646816 38.566584258889336Q49.63926160607271 39.26372145425489 50.46711202556931 39.26372145425489Q52.08650363563723 39.26372145425489 52.08650363563723 36.555052976428286ZM57.874194726328405 40.6434721534159Q56.97372584898122 40.6434721534159 56.48718218138234 40.15329756292449Q56.00063851378346 39.66312297243308 56.00063851378346 38.66825009988014V34.035192489013184H55.00576564123052V32.655441789852176H56.10230435477427L56.74134678385936 30.810932960447463H58.01943164202956V32.655441789852176H59.50811002796644V34.035192489013184H58.01943164202956V38.11634982021574Q58.01943164202956 38.69003563723532 58.2372870155813 38.96235485417499Q58.45514238913304 39.23467407111466 58.91263867359169 39.23467407111466Q59.1522795844986 39.23467407111466 59.59525217738713 39.13300823012385V40.39656939672393Q58.840020215741106 40.6434721534159 57.874194726328405 40.6434721534159ZM60.81524226927686 31.23938186176588V29.736179784258887H62.85582093487814V31.23938186176588ZM60.81524226927686 40.51275892928486V32.655441789852176H62.85582093487814V40.51275892928486ZM66.95876380343587 40.6434721534159Q66.05829492608869 40.6434721534159 65.57175125848981 40.15329756292449Q65.08520759089093 39.66312297243308 65.08520759089093 38.66825009988014V34.035192489013184H64.090334718338V32.655441789852176H65.18687343188174L65.82591586096684 30.810932960447463H67.10400071913703V32.655441789852176H68.59267910507391V34.035192489013184H67.10400071913703V38.11634982021574Q67.10400071913703 38.69003563723532 67.32185609268878 38.96235485417499Q67.53971146624052 39.23467407111466 67.99720775069916 39.23467407111466Q68.23684866160607 39.23467407111466 68.67982125449461 39.13300823012385V40.39656939672393Q67.92458929284858 40.6434721534159 66.95876380343587 40.6434721534159ZM69.89981134638434 40.51275892928486V29.736179784258887H71.94039001198561V40.51275892928486ZM77.24879928086295 40.65799584498602Q75.47690890930882 40.65799584498602 74.52560711146623 39.60865912904515Q73.57430531362364 38.559322413104276 73.57430531362364 36.547791130643226Q73.57430531362364 34.601616460247705 74.54013080303635 33.555910667199356Q75.50595629244906 32.510204874151015 77.27784666400319 32.510204874151015Q78.96985673192168 32.510204874151015 79.86306376348381 33.63216004794246Q80.75627079504594 34.75411522173392 80.75627079504594 36.91814526568118V36.976240031961645H75.71654982021573Q75.71654982021573 38.1236116660008 76.14136779864162 38.70819025169796Q76.5661857770675 39.29276883739512 77.35046512185376 39.29276883739512Q78.43248014382739 39.29276883739512 78.71569212944466 38.35599073112265L80.64008126248501 38.523013184178986Q79.80496899720335 40.65799584498602 77.24879928086295 40.65799584498602ZM77.24879928086295 33.79555157810627Q76.52987654814221 33.79555157810627 76.14136779864162 34.29661893727527Q75.75285904914102 34.79768629644427 75.73107351178585 35.69815517379145H78.78104874151018Q78.72295397522971 34.74685337594886 78.32355245705153 34.271202477027565Q77.92415093887334 33.79555157810627 77.24879928086295 33.79555157810627Z" fill="#F0EEEE"/>
  <path d="M41.08480727127447 50.134704594486614Q41.08480727127447 51.12231562125449 40.63457283260088 51.89933312025569Q40.18433839392729 52.67635061925689 39.3455952057531 53.10116859768277Q38.50685201757891 53.525986576108664 37.352218537754695 53.525986576108664H34.81057251298442V57.1278620854974H32.668328006392336V46.89592137435078H37.265076388334Q39.10232337195366 46.89592137435078 40.093565321614065 47.74192640831002Q41.08480727127447 48.58793144226927 41.08480727127447 50.134704594486614ZM38.92803907311227 50.171013823411904Q38.92803907311227 48.55888405912904 37.025435477427095 48.55888405912904H34.81057251298442V51.87754758290052H37.08353024370756Q37.969475429484625 51.87754758290052 38.448757251298446 51.43820591290451Q38.92803907311227 50.9988642429085 38.92803907311227 50.171013823411904ZM42.63158042349181 57.1278620854974V46.35128294047143H44.67215908909309V57.1278620854974ZM48.57903212145426 57.27309900119856Q47.43892233320017 57.27309900119856 46.79987990411507 56.6522111865761Q46.16083747502997 56.03132337195365 46.16083747502997 54.90573727526967Q46.16083747502997 53.68574718337994 46.956009588493814 53.04670475429484Q47.751181701957655 52.40766232520974 49.261645625249706 52.39313863363963L50.9536556931682 52.3640912504994V51.96468973232121Q50.9536556931682 51.19493407910507 50.684967399121064 50.820949021174584Q50.41627910507392 50.4469639632441 49.80628405912905 50.4469639632441Q49.239860087894535 50.4469639632441 48.974802716739916 50.70475948861366Q48.709745345585304 50.96255501398321 48.64438873351978 51.558026368357964L46.51666791849781 51.45636052736715Q46.71273775469437 50.308988893328 47.566004634438684 49.71714846184578Q48.41927151418299 49.125308030363556 49.89342620854975 49.125308030363556Q51.38210459448662 49.125308030363556 52.18816947662805 49.85875445465441Q52.99423435876948 50.59220087894526 52.99423435876948 51.94290419496603V54.80407143427886Q52.99423435876948 55.46489940071913 53.14310219736317 55.71543308030363Q53.29197003595686 55.96596675988813 53.640538633639636 55.96596675988813Q53.87291769876149 55.96596675988813 54.090773072313226 55.92239568517778V57.026196244506586Q53.90922692768678 57.069767319216936 53.763990011985626 57.10607654814223Q53.618753096284465 57.14238577706752 53.4735161805833 57.16417131442269Q53.32827926488215 57.18595685177786 53.16488773471835 57.20048054334798Q53.00149620455454 57.21500423491809 52.7836408310028 57.21500423491809Q52.01388517778666 57.21500423491809 51.64716196564123 56.837388254095075Q51.28043875349581 56.459772273272065 51.207820295645234 55.72632584898122H51.164249220934884Q50.30735141829805 57.27309900119856 48.57903212145426 57.27309900119856ZM50.9536556931682 53.489677347183374 49.90794990011986 53.50420103875349Q49.196289013184185 53.533248421893724 48.89855333599681 53.66033072313223Q48.60081765880943 53.78741302437075 48.44468797443069 54.048839472632835Q48.288558290051945 54.31026592089492 48.288558290051945 54.7459766679984Q48.288558290051945 55.30513879344786 48.5463538154215 55.57745801038753Q48.80414934079106 55.8497772273272 49.232598242109475 55.8497772273272Q49.711880063923296 55.8497772273272 50.10765065920896 55.58835077906512Q50.50342125449461 55.32692433080303 50.72853847383141 54.865797123451856Q50.9536556931682 54.40466991610067 50.9536556931682 53.88907886536156ZM56.05147143427887 60.21414654414702Q55.31802500998802 60.21414654414702 54.76612473032361 60.11974254894127V58.66737339192968Q55.15100255693169 58.72546815821014 55.470523771474234 58.72546815821014Q55.90623451857771 58.72546815821014 56.1930774270875 58.58749308829404Q56.479920335597285 58.449518018377944 56.708668477826606 58.1299968038354Q56.937416620055934 57.81047558929284 57.22062860567319 57.04798178186176L54.1125586096684 49.27054494606472H56.26932680783061L57.503840591290455 52.95230075908909Q57.79431442269277 53.7438419496604 58.2372870155813 55.37775725129843L58.418833160207754 54.68788190171794L58.890853136236515 52.98134814222932L60.05274846184579 49.27054494606472H62.18773112265282L59.07966112664803 57.5417872952457Q58.455142389133044 59.05225121853775 57.783421654015186 59.63319888134238Q57.11170091889733 60.21414654414702 56.05147143427887 60.21414654414702ZM66.5230530563324 57.27309900119856Q64.75116268477827 57.27309900119856 63.799860886935676 56.22376228525769Q62.84855908909309 55.17442556931682 62.84855908909309 53.16289428685577Q62.84855908909309 51.216719616460246 63.814384578505795 50.1710138234119Q64.7802100679185 49.125308030363556 66.55210043947264 49.125308030363556Q68.24411050739113 49.125308030363556 69.13731753895325 50.247263204155004Q70.03052457051538 51.36921837794646 70.03052457051538 53.533248421893724V53.591343188174186H64.99080359568518Q64.99080359568518 54.73871482221334 65.41562157411107 55.3232934079105Q65.84043955253695 55.907871993607664 66.6247188973232 55.907871993607664Q67.70673391929684 55.907871993607664 67.98994590491411 54.97109388733519L69.91433503795446 55.13811634039153Q69.0792227726728 57.27309900119856 66.5230530563324 57.27309900119856ZM66.5230530563324 50.41065473431881Q65.80413032361166 50.41065473431881 65.41562157411107 50.91172209348781Q65.02711282461047 51.41278945265681 65.0053272872553 52.31325833000399H68.05530251697962Q67.99720775069916 51.3619565321614 67.59780623252098 50.886305633240106Q67.19840471434279 50.41065473431881 66.5230530563324 50.41065473431881ZM71.57729772273272 57.1278620854974V51.115053775469434Q71.57729772273272 50.46874950059927 71.55914310827008 50.03666967638833Q71.54098849380743 49.604589852177384 71.51920295645226 49.27054494606472H73.46537762684778Q73.48716316420295 49.40125817019576 73.52347239312824 50.06571705952856Q73.55978162205353 50.73017594886136 73.55978162205353 50.9480313224131H73.58882900519376Q73.88656468238113 50.120180902916495 74.11894374750298 49.7825050739113Q74.35132281262484 49.44482924490611 74.67084402716739 49.28143771474231Q74.99036524170995 49.1180461845785 75.46964706352377 49.1180461845785Q75.8617867359169 49.1180461845785 76.10142764682381 49.226973871354375V50.93350763084298Q75.60762213343988 50.82457994406712 75.23000615261685 50.82457994406712Q74.46751234518577 50.82457994406712 74.04269436675989 51.44183683579704Q73.617876388334 52.059093727526964 73.617876388334 53.27182197363164V57.1278620854974Z" fill="#F0EEEE"/>
  <path d="M42.952,67.543 H65.048 A2.495,2.495 0 0 1 67.543,70.038 V82.156 A2.495,2.495 0 0 1 65.048,84.650 H42.952 A2.495,2.495 0 0 1 40.457,82.156 V70.038 A2.495,2.495 0 0 1 42.952,67.543 Z" fill="#12100D" stroke="#F0EEEE" stroke-width="1.140"/>
  <path d="M44.791,72.333 L45.078,72.503 L45.366,72.665 L45.654,72.810 L45.942,72.931 L46.230,73.024 L46.517,73.082 L46.805,73.103 L47.093,73.086 L47.381,73.032 L47.669,72.944 L47.956,72.825 L48.244,72.683 L48.532,72.523 L48.820,72.353 L49.108,72.183 L49.395,72.020 L49.683,71.873 L49.971,71.748 L50.259,71.652 L50.546,71.590 L50.834,71.564 L51.122,71.576 L51.410,71.626 L51.698,71.710 L51.985,71.826 L52.273,71.966 L52.561,72.124 L52.849,72.293 L53.137,72.464 L53.424,72.628 L53.712,72.778 L54.000,72.905 L54.288,73.005 L54.576,73.071 L54.863,73.101 L55.151,73.094 L55.439,73.048 L55.727,72.968 L56.015,72.856 L56.302,72.718 L56.590,72.562 L56.878,72.394 L57.166,72.223 L57.454,72.057 L57.741,71.906 L58.029,71.775 L58.317,71.672 L58.605,71.601 L58.892,71.567 L59.180,71.570 L59.468,71.611 L59.756,71.688 L60.044,71.796 L60.331,71.931 L60.619,72.086 L60.907,72.253 L61.195,72.424 L61.483,72.590 L61.770,72.744 L62.058,72.878 L62.346,72.984 L62.634,73.059 L62.922,73.098 L63.209,73.099" fill="none" stroke="#F0CF94" stroke-width="0.998" stroke-linecap="round" stroke-linejoin="round"/>
  <path d="M44.791,76.097 L44.998,76.220 L45.205,76.339 L45.412,76.453 L45.619,76.557 L45.827,76.650 L46.034,76.728 L46.241,76.790 L46.448,76.835 L46.656,76.860 L46.863,76.866 L47.070,76.853 L47.277,76.819 L47.484,76.768 L47.692,76.699 L47.899,76.615 L48.106,76.517 L48.313,76.409 L48.520,76.293 L48.728,76.172 L48.935,76.048 L49.142,75.927 L49.349,75.809 L49.556,75.699 L49.764,75.599 L49.971,75.511 L50.178,75.439 L50.385,75.384 L50.593,75.347 L50.800,75.329 L51.007,75.330 L51.214,75.352 L51.421,75.392 L51.629,75.451 L51.836,75.526 L52.043,75.615 L52.250,75.717 L52.457,75.829 L52.665,75.948 L52.872,76.070 L53.079,76.193 L53.286,76.314 L53.493,76.429 L53.701,76.535 L53.908,76.631 L54.115,76.712 L54.322,76.778 L54.530,76.827 L54.737,76.856 L54.944,76.867 L55.151,76.857 L55.358,76.828 L55.566,76.781 L55.773,76.715 L55.980,76.634 L56.187,76.539 L56.394,76.433 L56.602,76.319 L56.809,76.198 L57.016,76.075 L57.223,75.953 L57.430,75.834 L57.638,75.722 L57.845,75.619 L58.052,75.529" fill="none" stroke="#F0CF94" stroke-width="0.998" stroke-linecap="round" stroke-linejoin="round"/>
  <path d="M44.791,79.860 L44.940,79.949 L45.090,80.037 L45.240,80.122 L45.389,80.204 L45.539,80.281 L45.689,80.353 L45.838,80.418 L45.988,80.476 L46.137,80.525 L46.287,80.565 L46.437,80.596 L46.586,80.617 L46.736,80.629 L46.886,80.629 L47.035,80.620 L47.185,80.600 L47.335,80.571 L47.484,80.531 L47.634,80.483 L47.784,80.427 L47.933,80.363 L48.083,80.292 L48.233,80.216 L48.382,80.135 L48.532,80.050 L48.682,79.962 L48.831,79.874 L48.981,79.785 L49.131,79.697 L49.280,79.611 L49.430,79.529 L49.579,79.451 L49.729,79.378 L49.879,79.312 L50.028,79.253 L50.178,79.203 L50.328,79.161 L50.477,79.128 L50.627,79.106 L50.777,79.093 L50.926,79.091 L51.076,79.099 L51.226,79.117 L51.375,79.145 L51.525,79.183 L51.675,79.230 L51.824,79.285 L51.974,79.348 L52.124,79.417 L52.273,79.493 L52.423,79.574 L52.573,79.658 L52.722,79.745 L52.872,79.834 L53.022,79.923 L53.171,80.011 L53.321,80.097 L53.470,80.180 L53.620,80.259 L53.770,80.332 L53.919,80.399 L54.069,80.459 L54.219,80.511 L54.368,80.554" fill="none" stroke="#F0CF94" stroke-width="0.998" stroke-linecap="round" stroke-linejoin="round"/>
</svg>
